<svg xmlns="http://www.w3.org/2000/svg" version="1.1" xmlns:xlink="http://www.w3.org/1999/xlink" xmlns:svgjs="http://svgjs.dev/svgjs" width="2000" height="540" viewBox="0 0 2000 540"><g transform="matrix(1,0,0,1,-37.32530073329656,-23.871469789912595)"><svg viewBox="0 0 403 109" data-background-color="#ffffff" preserveAspectRatio="xMidYMid meet" height="540" width="2000" xmlns="http://www.w3.org/2000/svg" xmlns:xlink="http://www.w3.org/1999/xlink"><g id="tight-bounds" transform="matrix(1,0,0,1,7.521048097759262,4.8185003835193925)"><svg viewBox="0 0 395.52 99.36299923296122" height="99.36299923296122" width="395.52"><g><svg viewBox="0 0 585.9442719108002 147.20160861759422" height="99.36299923296122" width="395.52"><g transform="matrix(1,0,0,1,190.4242719108003,20.344071813285453)"><svg viewBox="0 0 395.5199999999999 106.51346499102331" height="106.51346499102331" width="395.5199999999999"><g id="textblocktransform"><svg viewBox="0 0 395.5199999999999 106.51346499102331" height="106.51346499102331" width="395.5199999999999" id="textblock"><g><svg viewBox="0 0 395.5199999999999 106.51346499102331" height="106.51346499102331" width="395.5199999999999"><g transform="matrix(1,0,0,1,0,0)"><svg width="395.5199999999999" viewBox="0.8 -33.75 167.08999999999997 45" height="106.51346499102331" data-palette-color="#ed2647"><path d="M34.2-1.75Q33.45-3.15 33.25-4.88 33.05-6.6 33.05-9.65L33.05-9.65Q33.05-12.55 32.25-14.7 31.45-16.85 28.95-16.85L28.95-16.85Q28-16.85 27.08-16.28 26.15-15.7 25.7-14.85L25.7-14.85Q25-13.5 24.75-11.93 24.5-10.35 24.5-8.3L24.5-8.3Q24.5-7 24.65-5.65L24.65-5.65Q24.65-5.25 24.73-4.38 24.8-3.5 24.8-2.8L24.8-2.8Q24.8 0.2 22.7 0.2L22.7 0.2Q19.95 0.2 19.8-2.7L19.8-2.7Q19.8-4.75 19.85-4.9L19.85-4.9 19.85-7.05Q19.85-8.85 19.7-10.55 19.55-12.25 19.35-13.1L19.35-13.1Q18.9-14.75 18.18-15.65 17.45-16.55 15.9-16.55L15.9-16.55Q13.7-16.55 12.35-14.65L12.35-14.65Q11.4-13.15 11.1-11L11.1-11Q10.8-8.25 10.68-6.68 10.55-5.1 10.55-3.05L10.55-3.05Q10.55-1.6 10.08-0.7 9.6 0.2 8.3 0.2L8.3 0.2Q7.35 0.2 6.33-0.33 5.3-0.85 5.3-1.75L5.3-1.75Q5.3-2.7 5.5-3.65L5.5-3.65Q5.95-6.5 5.95-13.85L5.95-13.85Q5.95-15.05 5.38-16.18 4.8-17.3 4-17.3L4-17.3Q3.8-17.3 3.28-17.1 2.75-16.9 2.5-16.9L2.5-16.9Q1.85-16.9 1.33-17.5 0.8-18.1 0.8-18.5L0.8-18.5Q0.8-19.75 2.02-20.63 3.25-21.5 4.6-21.5L4.6-21.5Q6.45-21.5 7.75-20.35 9.05-19.2 9.75-17.15L9.75-17.15Q10.9-19.15 12.85-20.38 14.8-21.6 17.2-21.6L17.2-21.6Q18.7-21.6 19.63-21.23 20.55-20.85 21.15-20.18 21.75-19.5 22.7-18.15L22.7-18.15Q23.95-19.75 25.93-20.65 27.9-21.55 30-21.55L30-21.55Q32.5-21.55 34.5-19.53 36.5-17.5 37.2-14.85L37.2-14.85Q37.55-13.5 37.55-9.65L37.55-9.65 37.75-6.75Q38-4.15 39.45-3.6L39.45-3.6Q41.15-3.1 41.15-2.55L41.15-2.55Q41.15-1.35 40.55-0.8L40.55-0.8Q40.1-0.5 39.3-0.15 38.5 0.2 38.05 0.2L38.05 0.2Q35.35 0.2 34.2-1.75L34.2-1.75ZM50.15 10.2Q48.25 10.2 46.97 9.58 45.7 8.95 45.07 8.08 44.45 7.2 44.45 6.55L44.45 6.55Q44.45 5.7 45.05 5.23 45.65 4.75 46.5 4.75L46.5 4.75Q47 4.75 47.45 5.05 47.9 5.35 47.95 5.4L47.95 5.4Q48.3 5.65 48.65 5.83 49 6 49.4 6L49.4 6Q50.5 6 51.2 4.55 51.9 3.1 52.6-0.15L52.6-0.15Q50.35-3.45 48.85-6.75L48.85-6.75 47.7-9.4Q47.45-10 46.32-12.53 45.2-15.05 44.1-17L44.1-17Q43.4-18.4 43.4-18.9L43.4-18.9Q43.4-20.15 44.27-20.75 45.15-21.35 46.3-21.35L46.3-21.35Q47.1-21.35 47.52-21.03 47.95-20.7 48.5-19.85L48.5-19.85Q49.95-17.45 51.65-12.65L51.65-12.65Q52.65-9.9 53.25-8.47 53.85-7.05 54.7-5.6L54.7-5.6Q55.55-7.55 56.85-12.25L56.85-12.25Q57.65-14.95 58.17-16.57 58.7-18.2 59.35-19.55L59.35-19.55Q59.8-20.45 60.47-21 61.15-21.55 62-21.55L62-21.55Q62.85-21.55 63.82-20.93 64.8-20.3 64.8-19.45L64.8-19.45Q64.8-18.95 64.45-18.25L64.45-18.25Q62.5-13.75 61.02-9.78 59.55-5.8 58.2-1.05L58.2-1.05Q57.4 1.6 56.52 4 55.65 6.4 55.3 6.95L55.3 6.95Q54.3 8.35 53.05 9.28 51.8 10.2 50.15 10.2L50.15 10.2ZM80.59-9Q80.59-11.8 80.64-13.25L80.64-13.25 80.69-18Q80.69-20.9 80.54-24.35L80.54-24.35Q80.49-25.4 80.19-27.25L80.19-27.25Q79.79-30.05 79.79-31.45L79.79-31.45Q79.79-33.75 82.09-33.75L82.09-33.75Q83.54-33.75 84.17-32.98 84.79-32.2 85.04-30.55L85.04-30.55Q85.54-27.1 85.54-22.45L85.54-22.45Q85.54-21.05 85.44-18.25L85.44-18.25Q86.39-19.75 87.92-20.6 89.44-21.45 90.94-21.45L90.94-21.45Q95.29-21.45 98.44-17.85L98.44-17.85Q99.29-16.6 99.97-14.88 100.64-13.15 100.64-11.9L100.64-11.9Q100.64-9.7 100.17-7.85 99.69-6 98.49-4.25L98.49-4.25Q97.29-2.5 95.47-1.4 93.64-0.3 91.24-0.3L91.24-0.3Q89.14-0.3 87.47-1.15 85.79-2 84.79-3.4L84.79-3.4Q84.54-2.15 83.69-0.93 82.84 0.3 81.74 0.3L81.74 0.3Q80.84 0.3 80.24-0.18 79.64-0.65 79.64-1.6L79.64-1.6Q79.64-2.3 79.94-3.35L79.94-3.35Q80.24-4.8 80.42-6.03 80.59-7.25 80.59-9L80.59-9ZM89.99-4.45Q92.44-4.45 94.09-6.18 95.74-7.9 95.74-10.85L95.74-10.85Q95.74-13.55 94.29-15.5L94.29-15.5Q93.79-16.15 92.87-16.55 91.94-16.95 91.04-16.95L91.04-16.95Q88.94-16.95 87.49-15.73 86.04-14.5 85.84-12.35L85.84-12.35Q85.64-9.45 85.64-7.35L85.64-7.35Q86.24-6.2 87.47-5.33 88.69-4.45 89.99-4.45L89.99-4.45ZM110.99-7.75Q110.99-5.85 111.57-4.83 112.14-3.8 113.04-3.8L113.04-3.8Q113.54-3.8 113.99-3.88 114.44-3.95 114.89-3.95L114.89-3.95Q115.39-3.95 115.77-3.45 116.14-2.95 116.14-2.35L116.14-2.35Q116.14-1.15 115.02-0.48 113.89 0.2 111.99 0.2L111.99 0.2Q110.64 0.2 109.27-0.63 107.89-1.45 106.99-3.23 106.09-5 106.09-7.65L106.09-7.65Q106.09-13.35 106.29-17.3L106.29-17.3Q106.54-22 106.54-29.15L106.54-29.15Q106.54-31.4 106.79-32.3L106.79-32.3Q107.09-33 107.77-33.38 108.44-33.75 109.19-33.75L109.19-33.75Q109.94-33.75 110.52-33.5 111.09-33.25 111.29-32.7L111.29-32.7Q111.49-32.1 111.57-31.53 111.64-30.95 111.64-29.9L111.64-29.9Q111.64-27.85 111.49-25.95L111.49-25.95Q111.39-23.65 111.39-22.6L111.39-22.6Q110.99-13.8 110.99-7.75L110.99-7.75ZM139.34-16.05Q139.74-15.35 139.99-14.03 140.24-12.7 140.24-11.65L140.24-11.65Q140.24-9.7 139.39-6.1L139.39-6.1Q135.94 0.2 129.19 0.2L129.19 0.2Q126.69 0.2 124.09-1.45 121.49-3.1 120.49-5.25L120.49-5.25Q119.14-9.55 119.14-10.7L119.14-10.7Q119.14-12.7 120.01-14.95 120.89-17.2 122.24-18.85L122.24-18.85Q123.09-20 125.29-20.83 127.49-21.65 129.29-21.65L129.29-21.65Q132.79-21.65 135.24-20.33 137.69-19 139.34-16.05L139.34-16.05ZM134.99-8Q135.24-8.65 135.24-11.35L135.24-11.35Q135.24-12.8 134.71-14.2 134.19-15.6 133.19-16.6L133.19-16.6Q133.09-16.7 132.64-16.93 132.19-17.15 131.41-17.38 130.64-17.6 129.64-17.6L129.64-17.6Q126.84-17.6 125.54-15.35 124.24-13.1 124.24-10.25L124.24-10.25Q124.24-9.75 124.51-8.35 124.79-6.95 124.99-6.6L124.99-6.6Q125.14-6.25 125.76-5.63 126.39-5 127.31-4.53 128.24-4.05 129.24-4.05L129.24-4.05Q131.49-4.05 132.84-5.13 134.19-6.2 134.99-8L134.99-8ZM163.19-0.1Q164.54 0.85 165.01 2 165.49 3.15 165.49 5.2L165.49 5.2Q165.49 6.2 164.91 7.2 164.34 8.2 163.74 8.65L163.74 8.65Q158.99 11.25 154.24 11.25L154.24 11.25Q151.89 11.25 150.19 10.65 148.49 10.05 146.99 9.05L146.99 9.05Q145.99 8.3 145.36 6.98 144.74 5.65 144.74 4.35L144.74 4.35Q144.74 2.55 145.86 1.2 146.99-0.15 148.89-0.75L148.89-0.75Q148.54-1.5 148.54-2.5L148.54-2.5Q148.54-3.45 149.94-5.35L149.94-5.35Q147.54-6.15 146.16-8.2 144.79-10.25 144.79-13L144.79-13Q144.79-14.7 145.59-16.03 146.39-17.35 147.99-19.1L147.99-19.1Q149.09-20.3 150.79-20.85 152.49-21.4 155.04-21.4L155.04-21.4Q156.84-21.4 159.49-20.6L159.49-20.6Q162.64-22.8 165.04-22.8L165.04-22.8Q165.64-22.8 166.41-22.5 167.19-22.2 167.59-21.9L167.59-21.9Q167.89-21.35 167.89-20.05L167.89-20.05Q167.89-19.55 167.46-19.07 167.04-18.6 166.39-18.6L166.39-18.6 165.19-18.65Q164.29-18.75 163.79-18.75L163.79-18.75Q163.24-18.75 162.14-18.65L162.14-18.65Q163.19-17.4 163.76-16 164.34-14.6 164.34-12.35L164.34-12.35Q164.34-10.65 163.09-8.8 161.84-6.95 160.14-5.9L160.14-5.9Q157.54-4.5 154.09-4.45L154.09-4.45Q153.69-4.05 153.41-3.73 153.14-3.4 153.14-3.2L153.14-3.2Q153.14-2.65 154.09-2.35 155.04-2.05 156.99-1.9L156.99-1.9Q158.49-1.8 160.31-1.28 162.14-0.75 163.19-0.1L163.19-0.1ZM154.39-8.55Q156.69-8.55 158.09-9.8 159.49-11.05 159.49-13.35L159.49-13.35Q159.49-15.1 158.24-16.2 156.99-17.3 155.04-17.3L155.04-17.3Q153.79-17.3 152.36-16.88 150.94-16.45 150.34-15.55L150.34-15.55Q150.04-15.15 149.74-14.03 149.44-12.9 149.44-12.3L149.44-12.3Q149.44-11.45 150.16-10.58 150.89-9.7 152.06-9.13 153.24-8.55 154.39-8.55L154.39-8.55ZM157.54 2.3Q154.79 2.05 153.66 1.83 152.54 1.6 151.84 1.3L151.84 1.3Q149.29 2.65 149.29 4.25L149.29 4.25Q149.29 5.75 150.84 6.53 152.39 7.3 154.39 7.3L154.39 7.3Q155.29 7.3 156.84 7.1 158.39 6.9 159.44 6.4L159.44 6.4Q160.14 6.05 160.49 5.73 160.84 5.4 160.84 4.55L160.84 4.55Q160.84 3.5 159.74 2.95 158.64 2.4 157.54 2.3L157.54 2.3Z" opacity="1" transform="matrix(1,0,0,1,0,0)" fill="#ed2647" class="wordmark-text-0" data-fill-palette-color="primary" id="text-0"></path></svg></g></svg></g></svg></g></svg></g><g><svg viewBox="0 0 165.27899914957948 147.20160861759422" height="147.20160861759422" width="165.27899914957948"><g><svg xmlns="http://www.w3.org/2000/svg" data-name="Layer 1" viewBox="0 7 128 114" x="0" y="0" height="147.20160861759422" width="165.27899914957948" class="icon-icon-0" data-fill-palette-color="accent" id="icon-0"><path d="M108 81a20 20 0 1 0 20 20A20 20 0 0 0 108 81Zm14.45 13.23a12.37 12.37 0 0 1-8.37 15.37 9.5 9.5 0 0 1-11.8-6.42 7.21 7.21 0 0 1 4.87-8.94 5.37 5.37 0 0 1 6.65 3.62 3.89 3.89 0 0 1-2.63 4.83 2.71 2.71 0 0 1-3.36-1.83A2 2 0 0 0 104 102a6.71 6.71 0 0 0 8.33 4.54 7.89 7.89 0 0 0 5.33-9.79A9.37 9.37 0 0 0 106 90.4a11.21 11.21 0 0 0-7.57 13.91A13.52 13.52 0 0 0 111.38 114a13.56 13.56 0 0 0 3.84-0.56 16.34 16.34 0 0 0 5.69-3 16 16 0 1 1 1.53-16.29S122.45 94.21 122.45 94.23Z" fill="#ed2647" data-fill-palette-color="accent"></path><path d="M64 121a20 20 0 1 0-20-20A20 20 0 0 0 64 121Zm0-36a16 16 0 0 1 14.44 9.16s0 0 0 0.07a12.37 12.37 0 0 1-8.37 15.37 9.5 9.5 0 0 1-11.8-6.42 7.21 7.21 0 0 1 4.87-8.94 5.37 5.37 0 0 1 6.65 3.62 3.89 3.89 0 0 1-2.63 4.83 2.71 2.71 0 0 1-3.36-1.83A2 2 0 0 0 60 102a6.71 6.71 0 0 0 8.33 4.54 7.89 7.89 0 0 0 5.33-9.79A9.37 9.37 0 0 0 62 90.4a11.21 11.21 0 0 0-7.57 13.91A13.52 13.52 0 0 0 67.38 114a13.56 13.56 0 0 0 3.84-0.56 16.34 16.34 0 0 0 5.62-2.93A16 16 0 1 1 64 85Z" fill="#ed2647" data-fill-palette-color="accent"></path><path d="M0 101A20 20 0 1 0 20 81 20 20 0 0 0 0 101ZM20 85a16 16 0 0 1 14.44 9.16s0 0 0 0.07a12.37 12.37 0 0 1-8.37 15.37 9.5 9.5 0 0 1-11.8-6.42 7.21 7.21 0 0 1 4.87-8.94 5.37 5.37 0 0 1 6.65 3.62 3.89 3.89 0 0 1-2.63 4.83 2.71 2.71 0 0 1-3.36-1.83A2 2 0 0 0 16 102a6.71 6.71 0 0 0 8.33 4.54 7.89 7.89 0 0 0 5.33-9.79A9.37 9.37 0 0 0 18 90.4a11.21 11.21 0 0 0-7.57 13.91A13.52 13.52 0 0 0 23.38 114a13.56 13.56 0 0 0 3.84-0.56 16.34 16.34 0 0 0 5.62-2.93A16 16 0 1 1 20 85Z" fill="#ed2647" data-fill-palette-color="accent"></path><path d="M84 27A20 20 0 1 0 64 47 20 20 0 0 0 84 27ZM48 27a16 16 0 0 1 30.44-6.84s0 0 0 0.07A12.37 12.37 0 0 1 70.09 35.6a9.51 9.51 0 0 1-11.8-6.42 7.2 7.2 0 0 1 4.87-8.94 5.36 5.36 0 0 1 6.65 3.62 3.89 3.89 0 0 1-2.63 4.83 2.71 2.71 0 0 1-3.36-1.83A2 2 0 1 0 60 28a6.72 6.72 0 0 0 8.33 4.54 7.89 7.89 0 0 0 5.33-9.8A9.36 9.36 0 0 0 62 16.4a11.2 11.2 0 0 0-7.57 13.91 13.49 13.49 0 0 0 16.76 9.13 16.35 16.35 0 0 0 5.62-2.93A16 16 0 0 1 48 27Z" fill="#ed2647" data-fill-palette-color="accent"></path><path d="M22 64A20 20 0 1 0 42 44 20 20 0 0 0 22 64Zm34.44-6.84s0 0 0 0.07A12.37 12.37 0 0 1 48.09 72.6a9.5 9.5 0 0 1-11.8-6.42 7.15 7.15 0 0 1 0.58-5.48c1.54-2.83 5.36-4.66 8.36-3a5.32 5.32 0 0 1 2.58 3.19 3.89 3.89 0 0 1-2.63 4.83 2.71 2.71 0 0 1-3.36-1.83A2 2 0 1 0 38 65a6.71 6.71 0 0 0 8.33 4.54 7.9 7.9 0 0 0 5.33-9.79A9.36 9.36 0 0 0 40 53.4 11.2 11.2 0 0 0 32.46 67.3 13.52 13.52 0 0 0 45.38 77a13.56 13.56 0 0 0 3.84-0.56 16.34 16.34 0 0 0 5.62-2.93 16 16 0 1 1 1.6-16.34Z" fill="#ed2647" data-fill-palette-color="accent"></path><path d="M106 64A20 20 0 1 0 86 84 20 20 0 0 0 106 64ZM70 64a16 16 0 0 1 30.44-6.84s0 0 0 0.07A12.37 12.37 0 0 1 92.09 72.6a9.5 9.5 0 0 1-11.8-6.42 7.2 7.2 0 0 1 4.87-8.94 5.36 5.36 0 0 1 6.65 3.62 3.89 3.89 0 0 1-2.63 4.83 2.71 2.71 0 0 1-3.36-1.83A2 2 0 0 0 82 65a6.71 6.71 0 0 0 8.33 4.54 7.9 7.9 0 0 0 5.33-9.79A9.36 9.36 0 0 0 84 53.4 11.2 11.2 0 0 0 76.46 67.3 13.52 13.52 0 0 0 89.38 77a13.56 13.56 0 0 0 3.84-0.56 16.34 16.34 0 0 0 5.62-2.93A16 16 0 0 1 70 64Z" fill="#ed2647" data-fill-palette-color="accent"></path></svg></g></svg></g></svg></g><defs></defs></svg><rect width="395.52" height="99.36299923296122" fill="none" stroke="none" visibility="hidden"></rect></g></svg></g></svg>